# xmcd
#
# Track frame offsets: 
#        150
#        15477
#        34475
#        46042
#        63265
#        89757
#        106029
#        133701
#        142569
#        156851
#        170445
#        185287
#
# Disc length: 2777 seconds
#
# Revision: 0
# Processed by: cddbd v1.5.2PL0 Copyright (c) Steve Scherf et al.
# Submitted via: ExactAudioCopy v1.3
#
DISCID=910ad70c
DTITLE=Mark Wenner's Blues Warriors - Mark Wenner's Blues Warriors
DYEAR=2018
DGENRE=Blues
TTITLE0=Diamonds At Your Feet
TTITLE1=(Let Me Be Your) Teddy Bear
TTITLE2=Rock a While
TTITLE3=Checkin' Up On My Baby
TTITLE4=Just To Be With You
TTITLE5=King Bee
TTITLE6=It's My Own Fault
TTITLE7=Hello Josephine
TTITLE8=Trust My Baby
TTITLE9=The Hucklebuck
TTITLE10=Just Like Jimmy
TTITLE11=Dust My Broom
EXTD=
EXTT0=
EXTT1=
EXTT2=
EXTT3=
EXTT4=
EXTT5=
EXTT6=
EXTT7=
EXTT8=
EXTT9=
EXTT10=
EXTT11=
PLAYORDER=
